<?xml version="1.0" encoding="utf-8"?>
<!-- Generator: Adobe Illustrator 15.0.2, SVG Export Plug-In . SVG Version: 6.00 Build 0)  -->
<!DOCTYPE svg PUBLIC "-//W3C//DTD SVG 1.1//EN" "http://www.w3.org/Graphics/SVG/1.1/DTD/svg11.dtd">
<svg version="1.1" id="Layer_1" xmlns="http://www.w3.org/2000/svg" xmlns:xlink="http://www.w3.org/1999/xlink" x="0px" y="0px"
	 width="554px" height="565px" viewBox="0 0 554 565" enable-background="new 0 0 554 565" xml:space="preserve">
<rect y="7" fill="#A09287" width="554" height="558"/>
<rect fill="#E5DBCF" width="554" height="558"/>
<g>
	<path fill="#231F20" d="M232,319c0,2.75-2.25,5-5,5h-20c-2.75,0-5-2.25-5-5v-20c0-2.75,2.25-5,5-5h20c2.75,0,5,2.25,5,5V319z"/>
	<path fill="none" stroke="#E5DBCF" stroke-miterlimit="10" d="M232,319c0,2.75-2.25,5-5,5h-20c-2.75,0-5-2.25-5-5v-20
		c0-2.75,2.25-5,5-5h20c2.75,0,5,2.25,5,5V319z"/>
</g>
<g>
	<path fill="#69C96E" d="M316.82,234.18c2.75,0,3.409,1.591,1.464,3.536l-37.838,37.839c-1.945,1.945-5.126,1.945-7.071,0
		l-37.839-37.839c-1.945-1.945-1.286-3.536,1.464-3.536H316.82z"/>
	<path fill="none" stroke="#E5DBCF" stroke-miterlimit="10" d="M316.82,234.18c2.75,0,3.409,1.591,1.464,3.536l-37.838,37.839
		c-1.945,1.945-5.126,1.945-7.071,0l-37.839-37.839c-1.945-1.945-1.286-3.536,1.464-3.536H316.82z"/>
</g>
<g>
	<path fill="#2B7EF7" d="M237.001,324c-2.75,0-3.409-1.591-1.464-3.536l37.838-37.839c1.945-1.945,5.126-1.945,7.071,0
		l37.839,37.839c1.945,1.945,1.286,3.536-1.464,3.536H237.001z"/>
	<path fill="none" stroke="#E5DBCF" stroke-miterlimit="10" d="M237.001,324c-2.75,0-3.409-1.591-1.464-3.536l37.838-37.839
		c1.945-1.945,5.126-1.945,7.071,0l37.839,37.839c1.945,1.945,1.286,3.536-1.464,3.536H237.001z"/>
</g>
<g>
	<path fill="#FFCA55" d="M321.821,319c0,2.75-1.591,3.409-3.536,1.464l-37.839-37.838c-1.945-1.945-1.945-5.126,0-7.071
		l37.839-37.839c1.945-1.945,3.536-1.286,3.536,1.464V319z"/>
	<path fill="none" stroke="#E5DBCF" stroke-miterlimit="10" d="M321.821,319c0,2.75-1.591,3.409-3.536,1.464l-37.839-37.838
		c-1.945-1.945-1.945-5.126,0-7.071l37.839-37.839c1.945-1.945,3.536-1.286,3.536,1.464V319z"/>
</g>
<g>
	<path fill="#F74A21" d="M232,239.181c0-2.75,1.591-3.409,3.536-1.464l37.839,37.838c1.945,1.945,1.945,5.126,0,7.071
		l-37.839,37.839c-1.945,1.945-3.536,1.286-3.536-1.464V239.181z"/>
	<path fill="none" stroke="#E5DBCF" stroke-miterlimit="10" d="M232,239.181c0-2.75,1.591-3.409,3.536-1.464l37.839,37.838
		c1.945,1.945,1.945,5.126,0,7.071l-37.839,37.839c-1.945,1.945-3.536,1.286-3.536-1.464V239.181z"/>
</g>
<g>
	<path fill="#F74A21" d="M232,289c0,2.75-2.25,5-5,5h-20c-2.75,0-5-2.25-5-5v-20c0-2.75,2.25-5,5-5h20c2.75,0,5,2.25,5,5V289z"/>
	<path fill="none" stroke="#E5DBCF" stroke-miterlimit="10" d="M232,289c0,2.75-2.25,5-5,5h-20c-2.75,0-5-2.25-5-5v-20
		c0-2.75,2.25-5,5-5h20c2.75,0,5,2.25,5,5V289z"/>
</g>
<g>
	<path fill="#231F20" d="M232,259c0,2.75-2.25,5-5,5h-20c-2.75,0-5-2.25-5-5v-20c0-2.75,2.25-5,5-5h20c2.75,0,5,2.25,5,5V259z"/>
	<path fill="none" stroke="#E5DBCF" stroke-miterlimit="10" d="M232,259c0,2.75-2.25,5-5,5h-20c-2.75,0-5-2.25-5-5v-20
		c0-2.75,2.25-5,5-5h20c2.75,0,5,2.25,5,5V259z"/>
</g>
<g>
	<path fill="#231F20" d="M202,319c0,2.75-2.25,5-5,5h-20c-2.75,0-5-2.25-5-5v-20c0-2.75,2.25-5,5-5h20c2.75,0,5,2.25,5,5V319z"/>
	<path fill="none" stroke="#E5DBCF" stroke-miterlimit="10" d="M202,319c0,2.75-2.25,5-5,5h-20c-2.75,0-5-2.25-5-5v-20
		c0-2.75,2.25-5,5-5h20c2.75,0,5,2.25,5,5V319z"/>
</g>
<g>
	<path fill="#F74A21" d="M202,289c0,2.75-2.25,5-5,5h-20c-2.75,0-5-2.25-5-5v-20c0-2.75,2.25-5,5-5h20c2.75,0,5,2.25,5,5V289z"/>
	<path fill="none" stroke="#E5DBCF" stroke-miterlimit="10" d="M202,289c0,2.75-2.25,5-5,5h-20c-2.75,0-5-2.25-5-5v-20
		c0-2.75,2.25-5,5-5h20c2.75,0,5,2.25,5,5V289z"/>
</g>
<g>
	<path fill="#231F20" d="M202,259c0,2.75-2.25,5-5,5h-20c-2.75,0-5-2.25-5-5v-20c0-2.75,2.25-5,5-5h20c2.75,0,5,2.25,5,5V259z"/>
	<path fill="none" stroke="#E5DBCF" stroke-miterlimit="10" d="M202,259c0,2.75-2.25,5-5,5h-20c-2.75,0-5-2.25-5-5v-20
		c0-2.75,2.25-5,5-5h20c2.75,0,5,2.25,5,5V259z"/>
</g>
<g>
	<path fill="#231F20" d="M172,319c0,2.75-2.25,5-5,5h-20c-2.75,0-5-2.25-5-5v-20c0-2.75,2.25-5,5-5h20c2.75,0,5,2.25,5,5V319z"/>
	<path fill="none" stroke="#E5DBCF" stroke-miterlimit="10" d="M172,319c0,2.75-2.25,5-5,5h-20c-2.75,0-5-2.25-5-5v-20
		c0-2.75,2.25-5,5-5h20c2.75,0,5,2.25,5,5V319z"/>
</g>
<g>
	<path fill="#F74A21" d="M172,289c0,2.75-2.25,5-5,5h-20c-2.75,0-5-2.25-5-5v-20c0-2.75,2.25-5,5-5h20c2.75,0,5,2.25,5,5V289z"/>
	<path fill="none" stroke="#E5DBCF" stroke-miterlimit="10" d="M172,289c0,2.75-2.25,5-5,5h-20c-2.75,0-5-2.25-5-5v-20
		c0-2.75,2.25-5,5-5h20c2.75,0,5,2.25,5,5V289z"/>
</g>
<g>
	<path fill="#231F20" d="M172,259c0,2.75-2.25,5-5,5h-20c-2.75,0-5-2.25-5-5v-20c0-2.75,2.25-5,5-5h20c2.75,0,5,2.25,5,5V259z"/>
	<path fill="none" stroke="#E5DBCF" stroke-miterlimit="10" d="M172,259c0,2.75-2.25,5-5,5h-20c-2.75,0-5-2.25-5-5v-20
		c0-2.75,2.25-5,5-5h20c2.75,0,5,2.25,5,5V259z"/>
</g>
<g>
	<path fill="#231F20" d="M142,319c0,2.75-2.25,5-5,5h-20c-2.75,0-5-2.25-5-5v-20c0-2.75,2.25-5,5-5h20c2.75,0,5,2.25,5,5V319z"/>
	<path fill="none" stroke="#E5DBCF" stroke-miterlimit="10" d="M142,319c0,2.75-2.25,5-5,5h-20c-2.75,0-5-2.25-5-5v-20
		c0-2.75,2.25-5,5-5h20c2.75,0,5,2.25,5,5V319z"/>
</g>
<g>
	<path fill="#F74A21" d="M142,289c0,2.75-2.25,5-5,5h-20c-2.75,0-5-2.25-5-5v-20c0-2.75,2.25-5,5-5h20c2.75,0,5,2.25,5,5V289z"/>
	<path fill="none" stroke="#E5DBCF" stroke-miterlimit="10" d="M142,289c0,2.75-2.25,5-5,5h-20c-2.75,0-5-2.25-5-5v-20
		c0-2.75,2.25-5,5-5h20c2.75,0,5,2.25,5,5V289z"/>
</g>
<g>
	<path fill="#231F20" d="M142,259c0,2.75-2.25,5-5,5h-20c-2.75,0-5-2.25-5-5v-20c0-2.75,2.25-5,5-5h20c2.75,0,5,2.25,5,5V259z"/>
	<path fill="none" stroke="#E5DBCF" stroke-miterlimit="10" d="M142,259c0,2.75-2.25,5-5,5h-20c-2.75,0-5-2.25-5-5v-20
		c0-2.75,2.25-5,5-5h20c2.75,0,5,2.25,5,5V259z"/>
</g>
<g>
	<path fill="#231F20" d="M112,319c0,2.75-2.25,5-5,5H87c-2.75,0-5-2.25-5-5v-20c0-2.75,2.25-5,5-5h20c2.75,0,5,2.25,5,5V319z"/>
	<path fill="none" stroke="#E5DBCF" stroke-miterlimit="10" d="M112,319c0,2.75-2.25,5-5,5H87c-2.75,0-5-2.25-5-5v-20
		c0-2.75,2.25-5,5-5h20c2.75,0,5,2.25,5,5V319z"/>
</g>
<g>
	<path fill="#F74A21" d="M112,289c0,2.75-2.25,5-5,5H87c-2.75,0-5-2.25-5-5v-20c0-2.75,2.25-5,5-5h20c2.75,0,5,2.25,5,5V289z"/>
	<path fill="none" stroke="#E5DBCF" stroke-miterlimit="10" d="M112,289c0,2.75-2.25,5-5,5H87c-2.75,0-5-2.25-5-5v-20
		c0-2.75,2.25-5,5-5h20c2.75,0,5,2.25,5,5V289z"/>
</g>
<g>
	<path fill="#F74A21" d="M112,259c0,2.75-2.25,5-5,5H87c-2.75,0-5-2.25-5-5v-20c0-2.75,2.25-5,5-5h20c2.75,0,5,2.25,5,5V259z"/>
	<path fill="none" stroke="#E5DBCF" stroke-miterlimit="10" d="M112,259c0,2.75-2.25,5-5,5H87c-2.75,0-5-2.25-5-5v-20
		c0-2.75,2.25-5,5-5h20c2.75,0,5,2.25,5,5V259z"/>
</g>
<g>
	<path fill="#231F20" d="M82,319c0,2.75-2.25,5-5,5H57c-2.75,0-5-2.25-5-5v-20c0-2.75,2.25-5,5-5h20c2.75,0,5,2.25,5,5V319z"/>
	<path fill="none" stroke="#E5DBCF" stroke-miterlimit="10" d="M82,319c0,2.75-2.25,5-5,5H57c-2.75,0-5-2.25-5-5v-20
		c0-2.75,2.25-5,5-5h20c2.75,0,5,2.25,5,5V319z"/>
</g>
<g>
	<path fill="#231F20" d="M82,289c0,2.75-2.25,5-5,5H57c-2.75,0-5-2.25-5-5v-20c0-2.75,2.25-5,5-5h20c2.75,0,5,2.25,5,5V289z"/>
	<path fill="none" stroke="#E5DBCF" stroke-miterlimit="10" d="M82,289c0,2.75-2.25,5-5,5H57c-2.75,0-5-2.25-5-5v-20
		c0-2.75,2.25-5,5-5h20c2.75,0,5,2.25,5,5V289z"/>
</g>
<g>
	<path fill="#231F20" d="M82,259c0,2.75-2.25,5-5,5H57c-2.75,0-5-2.25-5-5v-20c0-2.75,2.25-5,5-5h20c2.75,0,5,2.25,5,5V259z"/>
	<path fill="none" stroke="#E5DBCF" stroke-miterlimit="10" d="M82,259c0,2.75-2.25,5-5,5H57c-2.75,0-5-2.25-5-5v-20
		c0-2.75,2.25-5,5-5h20c2.75,0,5,2.25,5,5V259z"/>
</g>
<g>
	<path fill="#231F20" d="M502,319c0,2.75-2.25,5-5,5h-20c-2.75,0-5-2.25-5-5v-20c0-2.75,2.25-5,5-5h20c2.75,0,5,2.25,5,5V319z"/>
	<path fill="none" stroke="#E5DBCF" stroke-miterlimit="10" d="M502,319c0,2.75-2.25,5-5,5h-20c-2.75,0-5-2.25-5-5v-20
		c0-2.75,2.25-5,5-5h20c2.75,0,5,2.25,5,5V319z"/>
</g>
<g>
	<path fill="#231F20" d="M502,289c0,2.75-2.25,5-5,5h-20c-2.75,0-5-2.25-5-5v-20c0-2.75,2.25-5,5-5h20c2.75,0,5,2.25,5,5V289z"/>
	<path fill="none" stroke="#E5DBCF" stroke-miterlimit="10" d="M502,289c0,2.75-2.25,5-5,5h-20c-2.75,0-5-2.25-5-5v-20
		c0-2.75,2.25-5,5-5h20c2.75,0,5,2.25,5,5V289z"/>
</g>
<g>
	<path fill="#231F20" d="M502,259c0,2.75-2.25,5-5,5h-20c-2.75,0-5-2.25-5-5v-20c0-2.75,2.25-5,5-5h20c2.75,0,5,2.25,5,5V259z"/>
	<path fill="none" stroke="#E5DBCF" stroke-miterlimit="10" d="M502,259c0,2.75-2.25,5-5,5h-20c-2.75,0-5-2.25-5-5v-20
		c0-2.75,2.25-5,5-5h20c2.75,0,5,2.25,5,5V259z"/>
</g>
<g>
	<path fill="#FFCA55" d="M472,319c0,2.75-2.25,5-5,5h-20c-2.75,0-5-2.25-5-5v-20c0-2.75,2.25-5,5-5h20c2.75,0,5,2.25,5,5V319z"/>
	<path fill="none" stroke="#E5DBCF" stroke-miterlimit="10" d="M472,319c0,2.75-2.25,5-5,5h-20c-2.75,0-5-2.25-5-5v-20
		c0-2.75,2.25-5,5-5h20c2.75,0,5,2.25,5,5V319z"/>
</g>
<g>
	<path fill="#FFCA55" d="M472,289c0,2.75-2.25,5-5,5h-20c-2.75,0-5-2.25-5-5v-20c0-2.75,2.25-5,5-5h20c2.75,0,5,2.25,5,5V289z"/>
	<path fill="none" stroke="#E5DBCF" stroke-miterlimit="10" d="M472,289c0,2.75-2.25,5-5,5h-20c-2.75,0-5-2.25-5-5v-20
		c0-2.75,2.25-5,5-5h20c2.75,0,5,2.25,5,5V289z"/>
</g>
<g>
	<path fill="#231F20" d="M472,259c0,2.75-2.25,5-5,5h-20c-2.75,0-5-2.25-5-5v-20c0-2.75,2.25-5,5-5h20c2.75,0,5,2.25,5,5V259z"/>
	<path fill="none" stroke="#E5DBCF" stroke-miterlimit="10" d="M472,259c0,2.75-2.25,5-5,5h-20c-2.75,0-5-2.25-5-5v-20
		c0-2.75,2.25-5,5-5h20c2.75,0,5,2.25,5,5V259z"/>
</g>
<g>
	<path fill="#231F20" d="M442,319c0,2.75-2.25,5-5,5h-20c-2.75,0-5-2.25-5-5v-20c0-2.75,2.25-5,5-5h20c2.75,0,5,2.25,5,5V319z"/>
	<path fill="none" stroke="#E5DBCF" stroke-miterlimit="10" d="M442,319c0,2.75-2.25,5-5,5h-20c-2.75,0-5-2.25-5-5v-20
		c0-2.75,2.25-5,5-5h20c2.75,0,5,2.25,5,5V319z"/>
</g>
<g>
	<path fill="#FFCA55" d="M442,289c0,2.75-2.25,5-5,5h-20c-2.75,0-5-2.25-5-5v-20c0-2.75,2.25-5,5-5h20c2.75,0,5,2.25,5,5V289z"/>
	<path fill="none" stroke="#E5DBCF" stroke-miterlimit="10" d="M442,289c0,2.75-2.25,5-5,5h-20c-2.75,0-5-2.25-5-5v-20
		c0-2.75,2.25-5,5-5h20c2.75,0,5,2.25,5,5V289z"/>
</g>
<g>
	<path fill="#231F20" d="M442,259c0,2.75-2.25,5-5,5h-20c-2.75,0-5-2.25-5-5v-20c0-2.75,2.25-5,5-5h20c2.75,0,5,2.25,5,5V259z"/>
	<path fill="none" stroke="#E5DBCF" stroke-miterlimit="10" d="M442,259c0,2.75-2.25,5-5,5h-20c-2.75,0-5-2.25-5-5v-20
		c0-2.75,2.25-5,5-5h20c2.75,0,5,2.25,5,5V259z"/>
</g>
<g>
	<path fill="#231F20" d="M412,319c0,2.75-2.25,5-5,5h-20c-2.75,0-5-2.25-5-5v-20c0-2.75,2.25-5,5-5h20c2.75,0,5,2.25,5,5V319z"/>
	<path fill="none" stroke="#E5DBCF" stroke-miterlimit="10" d="M412,319c0,2.75-2.25,5-5,5h-20c-2.75,0-5-2.25-5-5v-20
		c0-2.75,2.25-5,5-5h20c2.75,0,5,2.25,5,5V319z"/>
</g>
<g>
	<path fill="#FFCA55" d="M412,289c0,2.75-2.25,5-5,5h-20c-2.75,0-5-2.25-5-5v-20c0-2.75,2.25-5,5-5h20c2.75,0,5,2.25,5,5V289z"/>
	<path fill="none" stroke="#E5DBCF" stroke-miterlimit="10" d="M412,289c0,2.75-2.25,5-5,5h-20c-2.75,0-5-2.25-5-5v-20
		c0-2.75,2.25-5,5-5h20c2.75,0,5,2.25,5,5V289z"/>
</g>
<g>
	<path fill="#231F20" d="M412,259c0,2.75-2.25,5-5,5h-20c-2.75,0-5-2.25-5-5v-20c0-2.75,2.25-5,5-5h20c2.75,0,5,2.25,5,5V259z"/>
	<path fill="none" stroke="#E5DBCF" stroke-miterlimit="10" d="M412,259c0,2.75-2.25,5-5,5h-20c-2.75,0-5-2.25-5-5v-20
		c0-2.75,2.25-5,5-5h20c2.75,0,5,2.25,5,5V259z"/>
</g>
<g>
	<path fill="#231F20" d="M382,319c0,2.75-2.25,5-5,5h-20c-2.75,0-5-2.25-5-5v-20c0-2.75,2.25-5,5-5h20c2.75,0,5,2.25,5,5V319z"/>
	<path fill="none" stroke="#E5DBCF" stroke-miterlimit="10" d="M382,319c0,2.75-2.25,5-5,5h-20c-2.75,0-5-2.25-5-5v-20
		c0-2.75,2.25-5,5-5h20c2.75,0,5,2.25,5,5V319z"/>
</g>
<g>
	<path fill="#FFCA55" d="M382,289c0,2.75-2.25,5-5,5h-20c-2.75,0-5-2.25-5-5v-20c0-2.75,2.25-5,5-5h20c2.75,0,5,2.25,5,5V289z"/>
	<path fill="none" stroke="#E5DBCF" stroke-miterlimit="10" d="M382,289c0,2.75-2.25,5-5,5h-20c-2.75,0-5-2.25-5-5v-20
		c0-2.75,2.25-5,5-5h20c2.75,0,5,2.25,5,5V289z"/>
</g>
<g>
	<path fill="#231F20" d="M382,259c0,2.75-2.25,5-5,5h-20c-2.75,0-5-2.25-5-5v-20c0-2.75,2.25-5,5-5h20c2.75,0,5,2.25,5,5V259z"/>
	<path fill="none" stroke="#E5DBCF" stroke-miterlimit="10" d="M382,259c0,2.75-2.25,5-5,5h-20c-2.75,0-5-2.25-5-5v-20
		c0-2.75,2.25-5,5-5h20c2.75,0,5,2.25,5,5V259z"/>
</g>
<g>
	<path fill="#231F20" d="M352,319c0,2.75-2.25,5-5,5h-20c-2.75,0-5-2.25-5-5v-20c0-2.75,2.25-5,5-5h20c2.75,0,5,2.25,5,5V319z"/>
	<path fill="none" stroke="#E5DBCF" stroke-miterlimit="10" d="M352,319c0,2.75-2.25,5-5,5h-20c-2.75,0-5-2.25-5-5v-20
		c0-2.75,2.25-5,5-5h20c2.75,0,5,2.25,5,5V319z"/>
</g>
<g>
	<path fill="#FFCA55" d="M502,499c0,2.75-2.25,5-5,5H327c-2.75,0-5-2.25-5-5V329c0-2.75,2.25-5,5-5h170c2.75,0,5,2.25,5,5V499z"/>
	<path fill="none" stroke="#E5DBCF" stroke-miterlimit="10" d="M502,499c0,2.75-2.25,5-5,5H327c-2.75,0-5-2.25-5-5V329
		c0-2.75,2.25-5,5-5h170c2.75,0,5,2.25,5,5V499z"/>
</g>
<g>
	<path fill="#231F20" d="M472,469c0,2.75-2.25,5-5,5H357c-2.75,0-5-2.25-5-5V359c0-2.75,2.25-5,5-5h110c2.75,0,5,2.25,5,5V469z"/>
	<path fill="none" stroke="#E5DBCF" stroke-miterlimit="10" d="M472,469c0,2.75-2.25,5-5,5H357c-2.75,0-5-2.25-5-5V359
		c0-2.75,2.25-5,5-5h110c2.75,0,5,2.25,5,5V469z"/>
</g>
<g>
	<path fill="#69C96E" d="M502,229c0,2.75-2.25,5-5,5H327c-2.75,0-5-2.25-5-5V59c0-2.75,2.25-5,5-5h170c2.75,0,5,2.25,5,5V229z"/>
	<path fill="none" stroke="#E5DBCF" stroke-miterlimit="10" d="M502,229c0,2.75-2.25,5-5,5H327c-2.75,0-5-2.25-5-5V59
		c0-2.75,2.25-5,5-5h170c2.75,0,5,2.25,5,5V229z"/>
</g>
<g>
	<path fill="#231F20" d="M472,199c0,2.75-2.25,5-5,5H357c-2.75,0-5-2.25-5-5V89c0-2.75,2.25-5,5-5h110c2.75,0,5,2.25,5,5V199z"/>
	<path fill="none" stroke="#E5DBCF" stroke-miterlimit="10" d="M472,199c0,2.75-2.25,5-5,5H357c-2.75,0-5-2.25-5-5V89
		c0-2.75,2.25-5,5-5h110c2.75,0,5,2.25,5,5V199z"/>
</g>
<g>
	<path fill="#2B7EF7" d="M232,499c0,2.75-2.25,5-5,5H57c-2.75,0-5-2.25-5-5V329c0-2.75,2.25-5,5-5h170c2.75,0,5,2.25,5,5V499z"/>
	<path fill="none" stroke="#E5DBCF" stroke-miterlimit="10" d="M232,499c0,2.75-2.25,5-5,5H57c-2.75,0-5-2.25-5-5V329
		c0-2.75,2.25-5,5-5h170c2.75,0,5,2.25,5,5V499z"/>
</g>
<g>
	<path fill="#231F20" d="M202,469c0,2.75-2.25,5-5,5H87c-2.75,0-5-2.25-5-5V359c0-2.75,2.25-5,5-5h110c2.75,0,5,2.25,5,5V469z"/>
	<path fill="none" stroke="#E5DBCF" stroke-miterlimit="10" d="M202,469c0,2.75-2.25,5-5,5H87c-2.75,0-5-2.25-5-5V359
		c0-2.75,2.25-5,5-5h110c2.75,0,5,2.25,5,5V469z"/>
</g>
<g>
	<path fill="#F74A21" d="M232,229c0,2.75-2.25,5-5,5H57c-2.75,0-5-2.25-5-5V59c0-2.75,2.25-5,5-5h170c2.75,0,5,2.25,5,5V229z"/>
	<path fill="none" stroke="#E5DBCF" stroke-miterlimit="10" d="M232,229c0,2.75-2.25,5-5,5H57c-2.75,0-5-2.25-5-5V59
		c0-2.75,2.25-5,5-5h170c2.75,0,5,2.25,5,5V229z"/>
</g>
<g>
	<path fill="#231F20" d="M202,199c0,2.75-2.25,5-5,5H87c-2.75,0-5-2.25-5-5V89c0-2.75,2.25-5,5-5h110c2.75,0,5,2.25,5,5V199z"/>
	<path fill="none" stroke="#E5DBCF" stroke-miterlimit="10" d="M202,199c0,2.75-2.25,5-5,5H87c-2.75,0-5-2.25-5-5V89
		c0-2.75,2.25-5,5-5h110c2.75,0,5,2.25,5,5V199z"/>
</g>
<g>
	<path fill="#FFCA55" d="M352,289c0,2.75-2.25,5-5,5h-20c-2.75,0-5-2.25-5-5v-20c0-2.75,2.25-5,5-5h20c2.75,0,5,2.25,5,5V289z"/>
	<path fill="none" stroke="#E5DBCF" stroke-miterlimit="10" d="M352,289c0,2.75-2.25,5-5,5h-20c-2.75,0-5-2.25-5-5v-20
		c0-2.75,2.25-5,5-5h20c2.75,0,5,2.25,5,5V289z"/>
</g>
<g>
	<path fill="#231F20" d="M352,259c0,2.75-2.25,5-5,5h-20c-2.75,0-5-2.25-5-5v-20c0-2.75,2.25-5,5-5h20c2.75,0,5,2.25,5,5V259z"/>
	<path fill="none" stroke="#E5DBCF" stroke-miterlimit="10" d="M352,259c0,2.75-2.25,5-5,5h-20c-2.75,0-5-2.25-5-5v-20
		c0-2.75,2.25-5,5-5h20c2.75,0,5,2.25,5,5V259z"/>
</g>
<g>
	<path fill="#231F20" d="M237,234c-2.75,0-5-2.25-5-5v-20c0-2.75,2.25-5,5-5h20c2.75,0,5,2.25,5,5v20c0,2.75-2.25,5-5,5H237z"/>
	<path fill="none" stroke="#E5DBCF" stroke-miterlimit="10" d="M237,234c-2.75,0-5-2.25-5-5v-20c0-2.75,2.25-5,5-5h20
		c2.75,0,5,2.25,5,5v20c0,2.75-2.25,5-5,5H237z"/>
</g>
<g>
	<path fill="#69C96E" d="M267,234c-2.75,0-5-2.25-5-5v-20c0-2.75,2.25-5,5-5h20c2.75,0,5,2.25,5,5v20c0,2.75-2.25,5-5,5H267z"/>
	<path fill="none" stroke="#E5DBCF" stroke-miterlimit="10" d="M267,234c-2.75,0-5-2.25-5-5v-20c0-2.75,2.25-5,5-5h20
		c2.75,0,5,2.25,5,5v20c0,2.75-2.25,5-5,5H267z"/>
</g>
<g>
	<path fill="#231F20" d="M297,234c-2.75,0-5-2.25-5-5v-20c0-2.75,2.25-5,5-5h20c2.75,0,5,2.25,5,5v20c0,2.75-2.25,5-5,5H297z"/>
	<path fill="none" stroke="#E5DBCF" stroke-miterlimit="10" d="M297,234c-2.75,0-5-2.25-5-5v-20c0-2.75,2.25-5,5-5h20
		c2.75,0,5,2.25,5,5v20c0,2.75-2.25,5-5,5H297z"/>
</g>
<g>
	<path fill="#231F20" d="M237,204c-2.75,0-5-2.25-5-5v-20c0-2.75,2.25-5,5-5h20c2.75,0,5,2.25,5,5v20c0,2.75-2.25,5-5,5H237z"/>
	<path fill="none" stroke="#E5DBCF" stroke-miterlimit="10" d="M237,204c-2.75,0-5-2.25-5-5v-20c0-2.75,2.25-5,5-5h20
		c2.75,0,5,2.25,5,5v20c0,2.75-2.25,5-5,5H237z"/>
</g>
<g>
	<path fill="#69C96E" d="M267,204c-2.75,0-5-2.25-5-5v-20c0-2.75,2.25-5,5-5h20c2.75,0,5,2.25,5,5v20c0,2.75-2.25,5-5,5H267z"/>
	<path fill="none" stroke="#E5DBCF" stroke-miterlimit="10" d="M267,204c-2.75,0-5-2.25-5-5v-20c0-2.75,2.25-5,5-5h20
		c2.75,0,5,2.25,5,5v20c0,2.75-2.25,5-5,5H267z"/>
</g>
<g>
	<path fill="#231F20" d="M297,204c-2.75,0-5-2.25-5-5v-20c0-2.75,2.25-5,5-5h20c2.75,0,5,2.25,5,5v20c0,2.75-2.25,5-5,5H297z"/>
	<path fill="none" stroke="#E5DBCF" stroke-miterlimit="10" d="M297,204c-2.75,0-5-2.25-5-5v-20c0-2.75,2.25-5,5-5h20
		c2.75,0,5,2.25,5,5v20c0,2.75-2.25,5-5,5H297z"/>
</g>
<g>
	<path fill="#231F20" d="M237,174c-2.75,0-5-2.25-5-5v-20c0-2.75,2.25-5,5-5h20c2.75,0,5,2.25,5,5v20c0,2.75-2.25,5-5,5H237z"/>
	<path fill="none" stroke="#E5DBCF" stroke-miterlimit="10" d="M237,174c-2.75,0-5-2.25-5-5v-20c0-2.75,2.25-5,5-5h20
		c2.75,0,5,2.25,5,5v20c0,2.75-2.25,5-5,5H237z"/>
</g>
<g>
	<path fill="#69C96E" d="M267,174c-2.75,0-5-2.25-5-5v-20c0-2.75,2.25-5,5-5h20c2.75,0,5,2.25,5,5v20c0,2.75-2.25,5-5,5H267z"/>
	<path fill="none" stroke="#E5DBCF" stroke-miterlimit="10" d="M267,174c-2.75,0-5-2.25-5-5v-20c0-2.75,2.25-5,5-5h20
		c2.75,0,5,2.25,5,5v20c0,2.75-2.25,5-5,5H267z"/>
</g>
<g>
	<path fill="#231F20" d="M297,174c-2.75,0-5-2.25-5-5v-20c0-2.75,2.25-5,5-5h20c2.75,0,5,2.25,5,5v20c0,2.75-2.25,5-5,5H297z"/>
	<path fill="none" stroke="#E5DBCF" stroke-miterlimit="10" d="M297,174c-2.75,0-5-2.25-5-5v-20c0-2.75,2.25-5,5-5h20
		c2.75,0,5,2.25,5,5v20c0,2.75-2.25,5-5,5H297z"/>
</g>
<g>
	<path fill="#231F20" d="M237,144c-2.75,0-5-2.25-5-5v-20c0-2.75,2.25-5,5-5h20c2.75,0,5,2.25,5,5v20c0,2.75-2.25,5-5,5H237z"/>
	<path fill="none" stroke="#E5DBCF" stroke-miterlimit="10" d="M237,144c-2.75,0-5-2.25-5-5v-20c0-2.75,2.25-5,5-5h20
		c2.75,0,5,2.25,5,5v20c0,2.75-2.25,5-5,5H237z"/>
</g>
<g>
	<path fill="#69C96E" d="M267,144c-2.75,0-5-2.25-5-5v-20c0-2.75,2.25-5,5-5h20c2.75,0,5,2.25,5,5v20c0,2.75-2.25,5-5,5H267z"/>
	<path fill="none" stroke="#E5DBCF" stroke-miterlimit="10" d="M267,144c-2.75,0-5-2.25-5-5v-20c0-2.75,2.25-5,5-5h20
		c2.75,0,5,2.25,5,5v20c0,2.75-2.25,5-5,5H267z"/>
</g>
<g>
	<path fill="#231F20" d="M297,144c-2.75,0-5-2.25-5-5v-20c0-2.75,2.25-5,5-5h20c2.75,0,5,2.25,5,5v20c0,2.75-2.25,5-5,5H297z"/>
	<path fill="none" stroke="#E5DBCF" stroke-miterlimit="10" d="M297,144c-2.75,0-5-2.25-5-5v-20c0-2.75,2.25-5,5-5h20
		c2.75,0,5,2.25,5,5v20c0,2.75-2.25,5-5,5H297z"/>
</g>
<g>
	<path fill="#231F20" d="M237,114c-2.75,0-5-2.25-5-5V89c0-2.75,2.25-5,5-5h20c2.75,0,5,2.25,5,5v20c0,2.75-2.25,5-5,5H237z"/>
	<path fill="none" stroke="#E5DBCF" stroke-miterlimit="10" d="M237,114c-2.75,0-5-2.25-5-5V89c0-2.75,2.25-5,5-5h20
		c2.75,0,5,2.25,5,5v20c0,2.75-2.25,5-5,5H237z"/>
</g>
<g>
	<path fill="#69C96E" d="M267,114c-2.75,0-5-2.25-5-5V89c0-2.75,2.25-5,5-5h20c2.75,0,5,2.25,5,5v20c0,2.75-2.25,5-5,5H267z"/>
	<path fill="none" stroke="#E5DBCF" stroke-miterlimit="10" d="M267,114c-2.75,0-5-2.25-5-5V89c0-2.75,2.25-5,5-5h20
		c2.75,0,5,2.25,5,5v20c0,2.75-2.25,5-5,5H267z"/>
</g>
<g>
	<path fill="#69C96E" d="M297,114c-2.75,0-5-2.25-5-5V89c0-2.75,2.25-5,5-5h20c2.75,0,5,2.25,5,5v20c0,2.75-2.25,5-5,5H297z"/>
	<path fill="none" stroke="#E5DBCF" stroke-miterlimit="10" d="M297,114c-2.75,0-5-2.25-5-5V89c0-2.75,2.25-5,5-5h20
		c2.75,0,5,2.25,5,5v20c0,2.75-2.25,5-5,5H297z"/>
</g>
<g>
	<path fill="#231F20" d="M237,84c-2.75,0-5-2.25-5-5V59c0-2.75,2.25-5,5-5h20c2.75,0,5,2.25,5,5v20c0,2.75-2.25,5-5,5H237z"/>
	<path fill="none" stroke="#E5DBCF" stroke-miterlimit="10" d="M237,84c-2.75,0-5-2.25-5-5V59c0-2.75,2.25-5,5-5h20
		c2.75,0,5,2.25,5,5v20c0,2.75-2.25,5-5,5H237z"/>
</g>
<g>
	<path fill="#231F20" d="M267,84c-2.75,0-5-2.25-5-5V59c0-2.75,2.25-5,5-5h20c2.75,0,5,2.25,5,5v20c0,2.75-2.25,5-5,5H267z"/>
	<path fill="none" stroke="#E5DBCF" stroke-miterlimit="10" d="M267,84c-2.75,0-5-2.25-5-5V59c0-2.75,2.25-5,5-5h20
		c2.75,0,5,2.25,5,5v20c0,2.75-2.25,5-5,5H267z"/>
</g>
<g>
	<path fill="#231F20" d="M297,84c-2.75,0-5-2.25-5-5V59c0-2.75,2.25-5,5-5h20c2.75,0,5,2.25,5,5v20c0,2.75-2.25,5-5,5H297z"/>
	<path fill="none" stroke="#E5DBCF" stroke-miterlimit="10" d="M297,84c-2.75,0-5-2.25-5-5V59c0-2.75,2.25-5,5-5h20
		c2.75,0,5,2.25,5,5v20c0,2.75-2.25,5-5,5H297z"/>
</g>
<g>
	<path fill="#231F20" d="M237,504c-2.75,0-5-2.25-5-5v-20c0-2.75,2.25-5,5-5h20c2.75,0,5,2.25,5,5v20c0,2.75-2.25,5-5,5H237z"/>
	<path fill="none" stroke="#E5DBCF" stroke-miterlimit="10" d="M237,504c-2.75,0-5-2.25-5-5v-20c0-2.75,2.25-5,5-5h20
		c2.75,0,5,2.25,5,5v20c0,2.75-2.25,5-5,5H237z"/>
</g>
<g>
	<path fill="#231F20" d="M267,504c-2.75,0-5-2.25-5-5v-20c0-2.75,2.25-5,5-5h20c2.75,0,5,2.25,5,5v20c0,2.75-2.25,5-5,5H267z"/>
	<path fill="none" stroke="#E5DBCF" stroke-miterlimit="10" d="M267,504c-2.75,0-5-2.25-5-5v-20c0-2.75,2.25-5,5-5h20
		c2.75,0,5,2.25,5,5v20c0,2.75-2.25,5-5,5H267z"/>
</g>
<g>
	<path fill="#231F20" d="M297,504c-2.75,0-5-2.25-5-5v-20c0-2.75,2.25-5,5-5h20c2.75,0,5,2.25,5,5v20c0,2.75-2.25,5-5,5H297z"/>
	<path fill="none" stroke="#E5DBCF" stroke-miterlimit="10" d="M297,504c-2.75,0-5-2.25-5-5v-20c0-2.75,2.25-5,5-5h20
		c2.75,0,5,2.25,5,5v20c0,2.75-2.25,5-5,5H297z"/>
</g>
<g>
	<path fill="#2B7EF7" d="M237,474c-2.75,0-5-2.25-5-5v-20c0-2.75,2.25-5,5-5h20c2.75,0,5,2.25,5,5v20c0,2.75-2.25,5-5,5H237z"/>
	<path fill="none" stroke="#E5DBCF" stroke-miterlimit="10" d="M237,474c-2.75,0-5-2.25-5-5v-20c0-2.75,2.25-5,5-5h20
		c2.75,0,5,2.25,5,5v20c0,2.75-2.25,5-5,5H237z"/>
</g>
<g>
	<path fill="#2B7EF7" d="M267,474c-2.75,0-5-2.25-5-5v-20c0-2.75,2.25-5,5-5h20c2.75,0,5,2.25,5,5v20c0,2.75-2.25,5-5,5H267z"/>
	<path fill="none" stroke="#E5DBCF" stroke-miterlimit="10" d="M267,474c-2.75,0-5-2.25-5-5v-20c0-2.75,2.25-5,5-5h20
		c2.75,0,5,2.25,5,5v20c0,2.75-2.25,5-5,5H267z"/>
</g>
<g>
	<path fill="#231F20" d="M297,474c-2.75,0-5-2.25-5-5v-20c0-2.75,2.25-5,5-5h20c2.75,0,5,2.25,5,5v20c0,2.75-2.25,5-5,5H297z"/>
	<path fill="none" stroke="#E5DBCF" stroke-miterlimit="10" d="M297,474c-2.75,0-5-2.25-5-5v-20c0-2.75,2.25-5,5-5h20
		c2.75,0,5,2.25,5,5v20c0,2.75-2.25,5-5,5H297z"/>
</g>
<g>
	<path fill="#231F20" d="M237,444c-2.75,0-5-2.25-5-5v-20c0-2.75,2.25-5,5-5h20c2.75,0,5,2.25,5,5v20c0,2.75-2.25,5-5,5H237z"/>
	<path fill="none" stroke="#E5DBCF" stroke-miterlimit="10" d="M237,444c-2.75,0-5-2.25-5-5v-20c0-2.75,2.25-5,5-5h20
		c2.75,0,5,2.25,5,5v20c0,2.75-2.25,5-5,5H237z"/>
</g>
<g>
	<path fill="#2B7EF7" d="M267,444c-2.75,0-5-2.25-5-5v-20c0-2.75,2.25-5,5-5h20c2.75,0,5,2.25,5,5v20c0,2.75-2.25,5-5,5H267z"/>
	<path fill="none" stroke="#E5DBCF" stroke-miterlimit="10" d="M267,444c-2.75,0-5-2.25-5-5v-20c0-2.75,2.25-5,5-5h20
		c2.75,0,5,2.25,5,5v20c0,2.75-2.25,5-5,5H267z"/>
</g>
<g>
	<path fill="#231F20" d="M297,444c-2.75,0-5-2.25-5-5v-20c0-2.75,2.25-5,5-5h20c2.75,0,5,2.25,5,5v20c0,2.75-2.25,5-5,5H297z"/>
	<path fill="none" stroke="#E5DBCF" stroke-miterlimit="10" d="M297,444c-2.75,0-5-2.25-5-5v-20c0-2.75,2.25-5,5-5h20
		c2.75,0,5,2.25,5,5v20c0,2.75-2.25,5-5,5H297z"/>
</g>
<g>
	<path fill="#231F20" d="M237,414c-2.75,0-5-2.25-5-5v-20c0-2.75,2.25-5,5-5h20c2.75,0,5,2.25,5,5v20c0,2.75-2.25,5-5,5H237z"/>
	<path fill="none" stroke="#E5DBCF" stroke-miterlimit="10" d="M237,414c-2.75,0-5-2.25-5-5v-20c0-2.75,2.25-5,5-5h20
		c2.75,0,5,2.25,5,5v20c0,2.75-2.25,5-5,5H237z"/>
</g>
<g>
	<path fill="#2B7EF7" d="M267,414c-2.75,0-5-2.25-5-5v-20c0-2.75,2.25-5,5-5h20c2.75,0,5,2.25,5,5v20c0,2.75-2.25,5-5,5H267z"/>
	<path fill="none" stroke="#E5DBCF" stroke-miterlimit="10" d="M267,414c-2.75,0-5-2.25-5-5v-20c0-2.75,2.25-5,5-5h20
		c2.75,0,5,2.25,5,5v20c0,2.75-2.25,5-5,5H267z"/>
</g>
<g>
	<path fill="#231F20" d="M297,414c-2.75,0-5-2.25-5-5v-20c0-2.75,2.25-5,5-5h20c2.75,0,5,2.25,5,5v20c0,2.75-2.25,5-5,5H297z"/>
	<path fill="none" stroke="#E5DBCF" stroke-miterlimit="10" d="M297,414c-2.75,0-5-2.25-5-5v-20c0-2.75,2.25-5,5-5h20
		c2.75,0,5,2.25,5,5v20c0,2.75-2.25,5-5,5H297z"/>
</g>
<g>
	<path fill="#231F20" d="M237,384c-2.75,0-5-2.25-5-5v-20c0-2.75,2.25-5,5-5h20c2.75,0,5,2.25,5,5v20c0,2.75-2.25,5-5,5H237z"/>
	<path fill="none" stroke="#E5DBCF" stroke-miterlimit="10" d="M237,384c-2.75,0-5-2.25-5-5v-20c0-2.75,2.25-5,5-5h20
		c2.75,0,5,2.25,5,5v20c0,2.75-2.25,5-5,5H237z"/>
</g>
<g>
	<path fill="#2B7EF7" d="M267,384c-2.75,0-5-2.25-5-5v-20c0-2.75,2.25-5,5-5h20c2.75,0,5,2.25,5,5v20c0,2.75-2.25,5-5,5H267z"/>
	<path fill="none" stroke="#E5DBCF" stroke-miterlimit="10" d="M267,384c-2.75,0-5-2.25-5-5v-20c0-2.75,2.25-5,5-5h20
		c2.75,0,5,2.25,5,5v20c0,2.75-2.25,5-5,5H267z"/>
</g>
<g>
	<path fill="#231F20" d="M297,384c-2.75,0-5-2.25-5-5v-20c0-2.75,2.25-5,5-5h20c2.75,0,5,2.25,5,5v20c0,2.75-2.25,5-5,5H297z"/>
	<path fill="none" stroke="#E5DBCF" stroke-miterlimit="10" d="M297,384c-2.75,0-5-2.25-5-5v-20c0-2.75,2.25-5,5-5h20
		c2.75,0,5,2.25,5,5v20c0,2.75-2.25,5-5,5H297z"/>
</g>
<g>
	<path fill="#231F20" d="M237,354c-2.75,0-5-2.25-5-5v-20c0-2.75,2.25-5,5-5h20c2.75,0,5,2.25,5,5v20c0,2.75-2.25,5-5,5H237z"/>
	<path fill="none" stroke="#E5DBCF" stroke-miterlimit="10" d="M237,354c-2.75,0-5-2.25-5-5v-20c0-2.75,2.25-5,5-5h20
		c2.75,0,5,2.25,5,5v20c0,2.75-2.25,5-5,5H237z"/>
</g>
<g>
	<path fill="#2B7EF7" d="M267,354c-2.75,0-5-2.25-5-5v-20c0-2.75,2.25-5,5-5h20c2.75,0,5,2.25,5,5v20c0,2.75-2.25,5-5,5H267z"/>
	<path fill="none" stroke="#E5DBCF" stroke-miterlimit="10" d="M267,354c-2.75,0-5-2.25-5-5v-20c0-2.75,2.25-5,5-5h20
		c2.75,0,5,2.25,5,5v20c0,2.75-2.25,5-5,5H267z"/>
</g>
<g>
	<path fill="#231F20" d="M297,354c-2.75,0-5-2.25-5-5v-20c0-2.75,2.25-5,5-5h20c2.75,0,5,2.25,5,5v20c0,2.75-2.25,5-5,5H297z"/>
	<path fill="none" stroke="#E5DBCF" stroke-miterlimit="10" d="M297,354c-2.75,0-5-2.25-5-5v-20c0-2.75,2.25-5,5-5h20
		c2.75,0,5,2.25,5,5v20c0,2.75-2.25,5-5,5H297z"/>
</g>
<polygon fill="none" stroke="#E5DBCF" stroke-linejoin="round" stroke-miterlimit="10" points="427,238.406 430.221,244.932 
	437.422,245.979 432.211,251.058 433.44,258.229 427,254.843 420.56,258.229 421.789,251.058 416.578,245.979 423.779,244.932 "/>
<polygon fill="none" stroke="#E5DBCF" stroke-linejoin="round" stroke-miterlimit="10" points="307,419.089 310.221,425.614 
	317.422,426.661 312.211,431.74 313.44,438.912 307,435.525 300.56,438.912 301.789,431.74 296.578,426.661 303.779,425.614 "/>
<polygon fill="none" stroke="#E5DBCF" stroke-linejoin="round" stroke-miterlimit="10" points="247,119.088 250.221,125.614 
	257.422,126.661 252.211,131.74 253.44,138.912 247,135.525 240.56,138.912 241.789,131.74 236.578,126.661 243.779,125.614 "/>
<polygon fill="none" stroke="#E5DBCF" stroke-linejoin="round" stroke-miterlimit="10" points="127,299.088 130.221,305.614 
	137.422,306.661 132.211,311.74 133.44,318.912 127,315.525 120.56,318.912 121.789,311.74 116.578,306.661 123.779,305.614 "/>
<circle fill="none" stroke="#E5DBCF" stroke-linejoin="round" stroke-miterlimit="10" cx="113.505" cy="115.5" r="15"/>
<circle fill="none" stroke="#E5DBCF" stroke-linejoin="round" stroke-miterlimit="10" cx="170.494" cy="115.5" r="15"/>
<circle fill="none" stroke="#E5DBCF" stroke-linejoin="round" stroke-miterlimit="10" cx="113.505" cy="172.5" r="15"/>
<circle fill="none" stroke="#E5DBCF" stroke-linejoin="round" stroke-miterlimit="10" cx="170.494" cy="172.5" r="15"/>
<circle fill="none" stroke="#E5DBCF" stroke-linejoin="round" stroke-miterlimit="10" cx="113.505" cy="385.5" r="15"/>
<circle fill="none" stroke="#E5DBCF" stroke-linejoin="round" stroke-miterlimit="10" cx="170.494" cy="385.5" r="15"/>
<circle fill="none" stroke="#E5DBCF" stroke-linejoin="round" stroke-miterlimit="10" cx="113.505" cy="442.5" r="15"/>
<circle fill="none" stroke="#E5DBCF" stroke-linejoin="round" stroke-miterlimit="10" cx="170.494" cy="442.5" r="15"/>
<circle fill="none" stroke="#E5DBCF" stroke-linejoin="round" stroke-miterlimit="10" cx="383.506" cy="115.5" r="15"/>
<circle fill="none" stroke="#E5DBCF" stroke-linejoin="round" stroke-miterlimit="10" cx="440.494" cy="115.5" r="15"/>
<circle fill="none" stroke="#E5DBCF" stroke-linejoin="round" stroke-miterlimit="10" cx="383.506" cy="172.5" r="15"/>
<circle fill="none" stroke="#E5DBCF" stroke-linejoin="round" stroke-miterlimit="10" cx="440.494" cy="172.5" r="15"/>
<circle fill="none" stroke="#E5DBCF" stroke-linejoin="round" stroke-miterlimit="10" cx="383.506" cy="385.5" r="15"/>
<circle fill="none" stroke="#E5DBCF" stroke-linejoin="round" stroke-miterlimit="10" cx="440.494" cy="385.5" r="15"/>
<circle fill="none" stroke="#E5DBCF" stroke-linejoin="round" stroke-miterlimit="10" cx="383.506" cy="442.5" r="15"/>
<circle fill="none" stroke="#E5DBCF" stroke-linejoin="round" stroke-miterlimit="10" cx="440.494" cy="442.5" r="15"/>
<polygon fill="#2B7EF7" points="285.51,492.179 268.31,492.179 276.91,483.579 "/>
<polygon fill="#69C96E" points="268.31,66.3 285.51,66.3 276.909,74.9 "/>
<polygon fill="#F74A21" points="63.97,287.84 63.97,270.64 72.57,279.24 "/>
<polygon fill="#FFCA55" points="489.849,270.64 489.849,287.84 481.249,279.239 "/>
</svg>
