<?xml version="1.0" encoding="utf-8"?>
<!-- Generator: Adobe Illustrator 15.0.2, SVG Export Plug-In . SVG Version: 6.00 Build 0)  -->
<!DOCTYPE svg PUBLIC "-//W3C//DTD SVG 1.1//EN" "http://www.w3.org/Graphics/SVG/1.1/DTD/svg11.dtd">
<svg version="1.1" id="Layer_1" xmlns="http://www.w3.org/2000/svg" xmlns:xlink="http://www.w3.org/1999/xlink" x="0px" y="0px"
	 width="56.495px" height="59.618px" viewBox="0 0 56.495 59.618" enable-background="new 0 0 56.495 59.618" xml:space="preserve">
<g>
	<path fill="#E5DBCF" d="M54.556,14.228l0.008-0.008l-5.111-8.229C49.367,5.854,49.29,5.715,49.2,5.585L49.179,5.55l0.001,0.009
		C46.882,2.203,43.024,0,38.652,0H12.756C5.712,0,0,5.712,0,12.757v25.895c0,2.345,0.644,4.534,1.748,6.424l-0.024-0.022
		l0.454,0.729c0,0.001,0,0.001,0.001,0.003l4.441,7.143c0.225,0.415,0.477,0.814,0.745,1.199l0.036,0.061h0.007
		c2.31,3.281,6.118,5.431,10.435,5.431h25.896c7.045,0,12.757-5.712,12.757-12.757V20.967C56.495,18.49,55.777,16.185,54.556,14.228
		z"/>
	<path fill="#231F20" d="M47.409,38.189c0,5.251-4.258,9.509-9.511,9.509H13.031c-5.253,0-9.51-4.258-9.51-9.509V13.32
		c0-5.251,4.257-9.509,9.51-9.509h24.867c5.253,0,9.511,4.258,9.511,9.509V38.189z"/>
	<path fill="#231F20" d="M50.497,16.763c0-2.555,0.716-3.159,1.59-1.345c0.875,1.814,1.591,5.39,1.591,7.942v22.956
		c0,2.554-0.716,3.287-1.591,1.63c-0.874-1.658-1.59-5.104-1.59-7.659V16.763z"/>
	<path fill="#231F20" d="M11.34,53.721c-0.876-1.469,0.257-2.672,2.518-2.672h27.239c2.261,0,4.828,1.203,5.704,2.672
		c0.876,1.471-0.257,2.673-2.519,2.673H17.045C14.783,56.394,12.216,55.191,11.34,53.721z"/>
</g>
</svg>
